<?xml version="1.0" encoding="UTF-8"?>
<!DOCTYPE svg PUBLIC "-//W3C//DTD SVG 1.1//EN" "http://www.w3.org/Graphics/SVG/1.1/DTD/svg11.dtd">
<svg xmlns="http://www.w3.org/2000/svg" version="1.1" width="32px" height="32px" style="shape-rendering:geometricPrecision; text-rendering:geometricPrecision; image-rendering:optimizeQuality; fill-rule:evenodd; clip-rule:evenodd" xmlns:xlink="http://www.w3.org/1999/xlink">
<g><path style="opacity:0.797" fill="#1b1c1b" d="M 9.5,-0.5 C 13.5,-0.5 17.5,-0.5 21.5,-0.5C 25.8333,1.83333 29.1667,5.16667 31.5,9.5C 31.5,13.5 31.5,17.5 31.5,21.5C 29.1667,25.8333 25.8333,29.1667 21.5,31.5C 17.5,31.5 13.5,31.5 9.5,31.5C 5.16667,29.1667 1.83333,25.8333 -0.5,21.5C -0.5,17.5 -0.5,13.5 -0.5,9.5C 1.83333,5.16667 5.16667,1.83333 9.5,-0.5 Z M 10.5,4.5 C 10.7938,6.27554 10.9605,8.27554 11,10.5C 12.6461,14.2896 14.1461,18.123 15.5,22C 15.4572,24.3759 14.2905,25.8759 12,26.5C 4.21438,23.1538 1.88105,17.4871 5,9.5C 6.72969,7.59809 8.56303,5.93142 10.5,4.5 Z M 18.5,4.5 C 26.5353,7.57595 29.0353,13.2426 26,21.5C 24.3163,23.3513 22.4829,25.018 20.5,26.5C 20.4477,24.4301 20.281,22.0968 20,19.5C 17.9623,16.0862 16.4623,12.4195 15.5,8.5C 15.7867,6.55668 16.7867,5.22335 18.5,4.5 Z"/></g>
</svg>
